<!--?xml version="1.0" standalone="no"?-->
              <svg id="sw-js-blob-svg" viewBox="0 0 100 100" xmlns="http://www.w3.org/2000/svg" version="1.1">
                    <defs> 
                        <linearGradient id="sw-gradient" x1="0" x2="1" y1="1" y2="0">
                            <stop id="stop1" stop-color="rgba(251, 90, 192, 1)" offset="0%"></stop>
                            <stop id="stop2" stop-color="rgba(54, 25, 171, 1)" offset="100%"></stop>
                        </linearGradient>
                    </defs>
                <path fill="url(#sw-gradient)" d="M23.3,-39.7C30,-36.5,35.2,-29.9,39.1,-22.7C43,-15.5,45.6,-7.8,44.9,-0.4C44.2,7,40.3,14,35.9,20.3C31.6,26.7,26.8,32.4,20.7,36.6C14.7,40.7,7.3,43.4,-0.5,44.2C-8.2,45,-16.5,43.9,-21.9,39.3C-27.3,34.8,-30,26.8,-32.8,19.7C-35.7,12.5,-38.7,6.3,-39.6,-0.5C-40.5,-7.3,-39.2,-14.6,-36.3,-21.6C-33.4,-28.7,-29,-35.6,-22.7,-39C-16.4,-42.4,-8.2,-42.4,0.1,-42.5C8.3,-42.6,16.6,-42.8,23.3,-39.7Z" width="100%" height="100%" transform="translate(50 50)" stroke-width="0" style="transition: all 0.3s ease 0s;"></path>
              </svg>