<svg version="1.0" xmlns="http://www.w3.org/2000/svg" width="501.000000pt" height="428.000000pt"
        viewBox="0 0 501.000000 428.000000" preserveAspectRatio="xMidYMid meet">

        <g transform="translate(0.000000,428.000000) scale(0.100000,-0.100000)" fill="#000000" stroke="none">
                <path data-aos="fade-left" d="M2236 4174 c-349 -47 -663 -176 -955 -391 -94 -70 -283 -253 -364
-353 -201 -249 -342 -551 -413 -885 -21 -98 -26 -159 -31 -331 -8 -288 17
-475 96 -710 28 -85 103 -270 114 -281 4 -3 360 197 374 211 1 1 -14 36 -33
79 -149 339 -168 776 -49 1136 126 377 372 683 716 889 199 120 393 183 662
217 l47 6 0 215 0 214 -32 -1 c-18 -1 -78 -7 -132 -15z" />
                <path data-aos="fade-right" d="M2620 3976 l0 -214 53 -7 c354 -44 624 -161 895 -389 215 -182 381
-431 477 -718 119 -355 100 -797 -49 -1134 -19 -43 -34 -79 -33 -80 10 -10
370 -215 372 -212 2 2 21 44 43 93 59 136 108 288 138 437 26 124 28 151 28
383 1 262 -4 313 -50 500 -65 264 -184 519 -342 732 -81 109 -310 339 -414
417 -240 177 -537 311 -808 365 -99 19 -253 41 -292 41 -17 0 -18 -16 -18
-214z" />
                <path data-aos="fade-up-right" d="M2365 3603 c-102 -12 -232 -39 -310 -65 -108 -36 -255 -103 -255
-116 0 -16 152 -252 162 -252 5 0 26 9 48 20 54 28 142 60 225 82 94 26 328
35 444 18 237 -35 471 -153 638 -322 197 -199 276 -357 339 -675 4 -21 7 -22
132 -17 169 7 172 8 172 44 0 98 -66 314 -145 475 -218 442 -643 744 -1135
805 -79 9 -248 11 -315 3z" />
                <path data-aos="fade-up-left" d="M1579 3277 c-252 -210 -422 -488 -501 -821 -19 -78 -22 -122 -23
-301 0 -184 3 -223 23 -314 83 -371 302 -695 608 -901 41 -29 77 -50 78 -48 2
1 34 63 72 136 59 115 66 135 53 143 -50 27 -147 110 -218 184 -183 195 -286
419 -312 688 -37 362 117 745 390 974 39 33 68 64 65 72 -10 30 -149 241 -159
241 -6 0 -40 -24 -76 -53z" />
                <path data-aos="fade-up-right" d="M2335 3135 c-229 -41 -446 -168 -595 -348 -64 -76 -144 -222 -178
-323 -25 -72 -48 -191 -39 -200 3 -3 50 -8 104 -11 l98 -6 12 65 c37 196 173
391 352 506 209 136 505 161 733 61 36 -16 70 -29 75 -29 7 0 102 137 111 161
4 11 -88 57 -173 86 -150 51 -348 66 -500 38z" />
                <path data-aos="fade-up-right" d="M3046 2868 l-54 -83 49 -43 c141 -124 235 -309 259 -509 32 -265 -92
-551 -309 -713 l-70 -52 45 -89 c24 -49 48 -89 53 -89 21 0 128 81 197 150
128 126 221 285 270 465 22 81 30 327 14 420 -32 180 -117 355 -239 491 -45
51 -140 134 -154 134 -4 0 -32 -37 -61 -82z" />
                <path data-aos="fade-up-left" d="M1510 2114 c0 -57 27 -199 51 -274 63 -189 202 -382 360 -497 64 -47
211 -123 284 -146 131 -43 330 -58 465 -37 85 14 231 60 237 76 3 9 -66 164
-82 182 -1 1 -22 -5 -46 -13 -78 -28 -178 -45 -265 -45 -400 0 -733 293 -786
690 l-12 90 -41 0 c-23 0 -70 3 -104 6 l-61 7 0 -39z" />
                <path data-aos="fade-up-right" d="M3785 2120 l-120 -5 -8 -80 c-17 -179 -94 -393 -195 -542 -104 -153
-273 -298 -447 -384 -275 -135 -579 -154 -873 -56 l-100 34 -69 -134 c-57
-112 -66 -135 -53 -143 29 -19 127 -53 235 -80 331 -84 683 -49 992 100 247
120 494 350 630 589 110 194 193 482 193 673 0 37 -1 38 -32 36 -18 -1 -87 -4
-153 -8z" />
                <path data-aos="zoom-in-up" d="M1095 1203 c-33 -20 -111 -65 -173 -101 -62 -36 -115 -69 -118 -74
-9 -14 128 -189 233 -298 511 -533 1264 -748 1978 -565 374 96 697 284 966
561 83 86 239 280 239 297 0 9 -352 217 -367 217 -5 0 -28 -29 -53 -63 -145
-201 -370 -383 -615 -497 -546 -256 -1188 -181 -1670 195 -91 71 -241 225
-300 308 -22 31 -44 56 -50 56 -5 0 -37 -17 -70 -36z" />
        </g>
</svg>